# xmcd
#
# Track frame offsets: 
#        150
#        11201
#        21936
#        32770
#        42710
#        52038
#        62024
#        70552
#        82507
#        90992
#        102447
#        113514
#        123989
#        134128
#        145630
#        154535
#        162170
#        172999
#        184426
#        196011
#        206887
#        216501
#
# Disc length: 3072 seconds
#
# Revision: 2
# Processed by: cddbd v1.5.2PL0 Copyright (c) Steve Scherf et al.
# Submitted via: ExactAudioCopy v1.1
#
DISCID=320bfe16
DTITLE=Syl Johnson - Syl Johnson:  Complete Mythology (Numero) - Disc 
DTITLE=2
DYEAR=2010
DGENRE=R&B
TTITLE0=Falling In Love Again
TTITLE1=I've Got To Get Over
TTITLE2=Straight Love, No Chaser
TTITLE3=Surrounded
TTITLE4=Try Me #1
TTITLE5=Half A Love
TTITLE6=Do You Know What Love Is
TTITLE7=The Love I Found In You
TTITLE8=Do You Know What Love Is
TTITLE9=Things Ain't Right
TTITLE10=Come On Sock It To Me
TTITLE11=Different Strokes
TTITLE12=Sorry 'Bout Dat
TTITLE13=Ode To Soul Man
TTITLE14=I'll Take Those Skinny Legs
TTITLE15=Send Me Some Lovin'
TTITLE16=Soul Drippin'
TTITLE17=Fox Hunting On The Weekend
TTITLE18=Try Me #2
TTITLE19=I Feel An Urge
TTITLE20=I Resign
TTITLE21=Love Condition
EXTD=
EXTT0=
EXTT1=
EXTT2=
EXTT3=
EXTT4=
EXTT5=
EXTT6=
EXTT7=
EXTT8=
EXTT9=
EXTT10=
EXTT11=
EXTT12=
EXTT13=
EXTT14=
EXTT15=
EXTT16=
EXTT17=
EXTT18=
EXTT19=
EXTT20=
EXTT21=
PLAYORDER=
